<svg width="58" height="54" viewBox="0 0 58 54" fill="none" xmlns="http://www.w3.org/2000/svg">
<path d="M55.168 8.71618C56.9578 11.5506 58 14.9004 58 18.4855C58 25.7004 53.7973 31.9631 47.6801 35.0104C47.6801 35.1784 47.6914 35.3465 47.6914 35.5145C47.6914 45.7095 39.3086 54 29 54C18.6914 54 10.3086 45.7095 10.3086 35.5145C10.3086 35.3465 10.3086 35.1784 10.3199 35.0104C4.20273 31.9631 0 25.7004 0 18.4855C0 8.29046 8.38281 0 18.6914 0C22.4977 0 26.0434 1.13154 29 3.06971C31.9566 1.13154 35.5023 0 39.3086 0C45.9922 0 51.8602 3.48423 55.168 8.71618Z" fill="url(#paint0_linear)"/>
<path d="M37.3719 18.9895C37.3719 18.8214 37.3832 18.6534 37.3832 18.4853C37.3832 12.0546 34.0527 6.38576 29.0004 3.06958C23.948 6.38576 20.6176 12.0546 20.6176 18.4853C20.6176 18.6534 20.6176 18.8214 20.6289 18.9895C23.1551 17.7347 25.9984 17.0289 29.0004 17.0289C32.0023 17.0289 34.857 17.7347 37.3719 18.9895ZM37.3719 18.9895C37.202 25.2073 33.9168 30.6746 29.0004 33.9011C31.957 35.8393 35.5027 36.9708 39.309 36.9708C42.3223 36.9708 45.1656 36.265 47.6805 35.0102C47.4992 28.0082 43.3418 21.9584 37.3719 18.9895ZM20.6289 18.9895C14.659 21.9584 10.5129 28.0082 10.3203 35.0102C12.8465 36.265 15.6898 36.9708 18.6918 36.9708C22.498 36.9708 26.0437 35.8393 29.0004 33.9011C24.084 30.6746 20.7988 25.2073 20.6289 18.9895Z" fill="url(#paint1_linear)"/>
<defs>
<linearGradient id="paint0_linear" x1="29" y1="0" x2="29" y2="54" gradientUnits="userSpaceOnUse">
<stop stop-color="#545DAA"/>
<stop offset="1" stop-color="#474F94"/>
</linearGradient>
<linearGradient id="paint1_linear" x1="29.0004" y1="36.9708" x2="29.0004" y2="3.07182" gradientUnits="userSpaceOnUse">
<stop stop-color="#EAF6FF"/>
<stop offset="1" stop-color="white"/>
</linearGradient>
</defs>
</svg>
