<svg width="48" height="48" viewBox="0 0 48 48" fill="none" xmlns="http://www.w3.org/2000/svg">
<path d="M45 12H3C1.3 12 0 10.7 0 9V3C0 1.3 1.3 0 3 0H45C46.7 0 48 1.3 48 3V9C48 10.7 46.7 12 45 12ZM3 2C2.5 2 2 2.5 2 3V9C2 9.6 2.5 10 3 10H45C45.5 10 46 9.6 46 9V3C46 2.5 45.5 2 45 2H3Z" fill="url(#paint0_linear)"/>
<path d="M45 48H3C1.3 48 0 46.7 0 45V19C0 17.3 1.3 16 3 16H45C46.7 16 48 17.3 48 19V45C48 46.7 46.7 48 45 48ZM3 18C2.5 18 2 18.5 2 19V45C2 45.5 2.5 46 3 46H45C45.5 46 46 45.5 46 45V19C46 18.5 45.5 18 45 18H3Z" fill="url(#paint1_linear)"/>
<path d="M39 42H27C25.3 42 24 40.7 24 39V25C24 23.3 25.3 22 27 22H39C40.7 22 42 23.3 42 25V39C42 40.7 40.7 42 39 42ZM27 24C26.5 24 26 24.5 26 25V39C26 39.5 26.5 40 27 40H39C39.5 40 40 39.5 40 39V25C40 24.5 39.5 24 39 24H27Z" fill="url(#paint2_linear)"/>
<path d="M19 26H7C6.4 26 6 25.6 6 25C6 24.4 6.4 24 7 24H19C19.6 24 20 24.4 20 25C20 25.6 19.5 26 19 26Z" fill="url(#paint3_linear)"/>
<path d="M19 32H7C6.4 32 6 31.6 6 31C6 30.4 6.4 30 7 30H19C19.6 30 20 30.4 20 31C20 31.6 19.5 32 19 32Z" fill="url(#paint4_linear)"/>
<path d="M19 38H7C6.4 38 6 37.6 6 37C6 36.4 6.4 36 7 36H19C19.6 36 20 36.4 20 37C20 37.6 19.5 38 19 38Z" fill="url(#paint5_linear)"/>
<defs>
<linearGradient id="paint0_linear" x1="24" y1="0" x2="24" y2="12" gradientUnits="userSpaceOnUse">
<stop stop-color="#545DAA"/>
<stop offset="1" stop-color="#474F94"/>
</linearGradient>
<linearGradient id="paint1_linear" x1="24" y1="16" x2="24" y2="48" gradientUnits="userSpaceOnUse">
<stop stop-color="#545DAA"/>
<stop offset="1" stop-color="#474F94"/>
</linearGradient>
<linearGradient id="paint2_linear" x1="33" y1="22" x2="33" y2="42" gradientUnits="userSpaceOnUse">
<stop stop-color="#545DAA"/>
<stop offset="1" stop-color="#474F94"/>
</linearGradient>
<linearGradient id="paint3_linear" x1="13" y1="24" x2="13" y2="26" gradientUnits="userSpaceOnUse">
<stop stop-color="#545DAA"/>
<stop offset="1" stop-color="#474F94"/>
</linearGradient>
<linearGradient id="paint4_linear" x1="13" y1="30" x2="13" y2="32" gradientUnits="userSpaceOnUse">
<stop stop-color="#545DAA"/>
<stop offset="1" stop-color="#474F94"/>
</linearGradient>
<linearGradient id="paint5_linear" x1="13" y1="36" x2="13" y2="38" gradientUnits="userSpaceOnUse">
<stop stop-color="#545DAA"/>
<stop offset="1" stop-color="#474F94"/>
</linearGradient>
</defs>
</svg>
