<svg width="53" height="48" viewBox="0 0 53 48" fill="none" xmlns="http://www.w3.org/2000/svg">
<g clipPath="url(#clip0)">
<path d="M48 15.3H47.4L39.9 2.2C39.3 1.2 38.4 0.5 37.3 0.2C36.8 0 36.4 0 36 0C35.3 0 34.6 0.2 34 0.6L2.2 19.1C0.8 19.9 0 21.4 0 22.9C0 23.6 0.2 24.4 0.6 25L6.6 35.4V43.6C6.6 46 8.6 48 11 48H48C50.4 48 52.4 46 52.4 43.6V19.6C52.4 17.2 50.4 15.3 48 15.3ZM6.5 19.6V31.1L2.5 24C1.9 23 2.3 21.6 3.3 21L6.6 19C6.6 19.2 6.5 19.4 6.5 19.6ZM35.1 2.5C35.6 2.2 36.2 2.1 36.7 2.3C37.3 2.4 37.7 2.8 38 3.3L44.9 15.3H13.1L35.1 2.5ZM50.2 43.6C50.2 44.8 49.2 45.8 48 45.8H10.9C9.7 45.8 8.7 44.8 8.7 43.6V19.6C8.7 18.4 9.7 17.4 10.9 17.4H48C49.2 17.4 50.2 18.4 50.2 19.6V43.6Z" fill="url(#paint0_linear)"/>
<path d="M46.9002 34.9H33.8002C33.2002 34.9 32.7002 35.4 32.7002 36C32.7002 36.6 33.2002 37.1 33.8002 37.1H46.9002C47.5002 37.1 48.0002 36.6 48.0002 36C48.0002 35.4 47.5002 34.9 46.9002 34.9Z" fill="url(#paint1_linear)"/>
<path d="M46.8999 28.4H29.4999C28.8999 28.4 28.3999 28.9 28.3999 29.5C28.3999 30.1 28.8999 30.6 29.4999 30.6H46.9999C47.5999 30.6 48.0999 30.1 48.0999 29.5C47.9999 28.9 47.4999 28.4 46.8999 28.4Z" fill="url(#paint2_linear)"/>
<path d="M19.6002 32.7C22.0002 32.7 24.0002 30.7 24.0002 28.3C24.0002 25.9 22.0002 24 19.6002 24C17.2002 24 15.2002 26 15.2002 28.4C15.2002 30.8 17.2002 32.7 19.6002 32.7ZM19.6002 26.2C20.8002 26.2 21.8002 27.2 21.8002 28.4C21.8002 29.6 20.8002 30.6 19.6002 30.6C18.4002 30.6 17.4002 29.6 17.4002 28.4C17.5002 27.2 18.4002 26.2 19.6002 26.2Z" fill="url(#paint3_linear)"/>
<path d="M26.2 35.4001C24.7 34.7001 22.3 33.8 19.7 33.8C17.1 33.8 14.7 34.7001 13.2 35.4001C11.8 36.1001 11 37.4 11 38.8V39.3C11 40.5 12 41.4001 13.2 41.4001H26.3C27.5 41.4001 28.5 40.5 28.5 39.3V38.8C28.4 37.4 27.5 36.1001 26.2 35.4001ZM26.2 39.3L13.1 39.4001V38.9001C13.1 38.3001 13.5 37.7 14.1 37.5C15.4 36.9 17.5 36.1 19.7 36.1C21.9 36.1 24 36.9 25.3 37.5C25.9 37.8 26.3 38.3001 26.3 38.9001V39.3H26.2Z" fill="url(#paint4_linear)"/>
</g>
<defs>
<linearGradient id="paint0_linear" x1="26.2" y1="0" x2="26.2" y2="48" gradientUnits="userSpaceOnUse">
<stop stop-color="#545DAA"/>
<stop offset="1" stop-color="#474F94"/>
</linearGradient>
<linearGradient id="paint1_linear" x1="40.3502" y1="34.9" x2="40.3502" y2="37.1" gradientUnits="userSpaceOnUse">
<stop stop-color="#545DAA"/>
<stop offset="1" stop-color="#474F94"/>
</linearGradient>
<linearGradient id="paint2_linear" x1="38.2499" y1="28.4" x2="38.2499" y2="30.6" gradientUnits="userSpaceOnUse">
<stop stop-color="#545DAA"/>
<stop offset="1" stop-color="#474F94"/>
</linearGradient>
<linearGradient id="paint3_linear" x1="19.6002" y1="24" x2="19.6002" y2="32.7" gradientUnits="userSpaceOnUse">
<stop stop-color="#545DAA"/>
<stop offset="1" stop-color="#474F94"/>
</linearGradient>
<linearGradient id="paint4_linear" x1="19.75" y1="33.8" x2="19.75" y2="41.4001" gradientUnits="userSpaceOnUse">
<stop stop-color="#545DAA"/>
<stop offset="1" stop-color="#474F94"/>
</linearGradient>
<clipPath id="clip0">
<rect width="52.4" height="48" fill="white"/>
</clipPath>
</defs>
</svg>
