<svg width="48" height="48" viewBox="0 0 48 48" fill="none" xmlns="http://www.w3.org/2000/svg">
<g clipPath="url(#clip0)">
<path d="M47.7999 37.3001L44.9999 29.2001C46.2999 26.5001 47.0999 23.4001 47.0999 20.3001C47.0999 15.0001 44.9999 9.90012 41.2999 6.10012C37.4999 2.30012 32.4999 0.100118 27.1999 0.000117903C21.6999 -0.0998821 16.4999 2.00012 12.4999 5.90012C8.69994 9.70012 6.59994 14.7001 6.59994 20.0001C2.89994 22.8001 0.699941 27.2001 0.699941 31.8001C0.699941 34.0001 1.19994 36.2001 2.09994 38.1001L0.199941 43.7001C-0.100059 44.7001 0.0999414 45.7001 0.799941 46.4001C1.29994 46.9001 1.99994 47.2001 2.69994 47.2001C2.99994 47.2001 3.29994 47.2001 3.59994 47.1001L9.19994 45.2001C11.1999 46.1001 13.2999 46.6001 15.4999 46.6001C20.1999 46.6001 24.5999 44.3001 27.3999 40.5001C30.2999 40.4001 33.1999 39.7001 35.7999 38.4001L43.8999 41.2001C44.1999 41.3001 44.5999 41.4001 44.8999 41.4001C45.6999 41.4001 46.4999 41.1001 47.0999 40.5001C47.8999 39.7001 48.1999 38.4001 47.7999 37.3001ZM15.3999 43.8001C13.3999 43.8001 11.4999 43.3001 9.79994 42.4001C9.49994 42.2001 8.99994 42.2001 8.69994 42.3001L2.99994 44.3001L4.99994 38.6001C5.09994 38.2001 5.09994 37.8001 4.89994 37.5001C3.99994 35.8001 3.49994 33.9001 3.49994 32.0001C3.49994 28.9001 4.69994 25.9001 6.79994 23.7001C7.49994 27.9001 9.49994 31.8001 12.5999 34.8001C15.6999 37.8001 19.5999 39.8001 23.7999 40.4001C21.5999 42.5001 18.5999 43.8001 15.3999 43.8001ZM45.0999 38.5001C44.9999 38.6001 44.8999 38.6001 44.7999 38.6001L36.0999 35.6001C35.8999 35.5001 35.7999 35.5001 35.5999 35.5001C35.3999 35.5001 35.0999 35.6001 34.8999 35.7001C32.3999 37.0001 29.5999 37.7001 26.7999 37.7001C17.2999 37.7001 9.49994 30.0001 9.39994 20.6001C9.29994 15.8001 11.0999 11.4001 14.4999 8.00012C17.8999 4.60012 22.2999 2.80012 27.0999 2.90012C36.5999 3.10012 44.1999 10.9001 44.1999 20.3001C44.1999 23.1001 43.4999 25.9001 42.1999 28.4001C41.9999 28.7001 41.9999 29.2001 42.0999 29.5001L45.0999 38.2001C45.1999 38.3001 45.0999 38.4001 45.0999 38.5001Z" fill="url(#paint0_linear)"/>
<path d="M35.2999 12.7001H18.2999C17.4999 12.7001 16.8999 13.3001 16.8999 14.1001C16.8999 14.9001 17.4999 15.5001 18.2999 15.5001H35.2999C36.0999 15.5001 36.6999 14.9001 36.6999 14.1001C36.7999 13.3001 36.0999 12.7001 35.2999 12.7001Z" fill="url(#paint1_linear)"/>
<path d="M35.2999 18.6001H18.2999C17.4999 18.6001 16.8999 19.2001 16.8999 20.0001C16.8999 20.8001 17.4999 21.4001 18.2999 21.4001H35.2999C36.0999 21.4001 36.6999 20.8001 36.6999 20.0001C36.6999 19.2001 36.0999 18.6001 35.2999 18.6001Z" fill="url(#paint2_linear)"/>
<path d="M28.7999 24.5001H18.2999C17.4999 24.5001 16.8999 25.1001 16.8999 25.9001C16.8999 26.7001 17.4999 27.3001 18.2999 27.3001H28.7999C29.5999 27.3001 30.1999 26.7001 30.1999 25.9001C30.1999 25.1001 29.5999 24.5001 28.7999 24.5001Z" fill="url(#paint3_linear)"/>
</g>
<defs>
<linearGradient id="paint0_linear" x1="24.0206" y1="-0.0032959" x2="24.0206" y2="47.2001" gradientUnits="userSpaceOnUse">
<stop stop-color="#545DAA"/>
<stop offset="1" stop-color="#474F94"/>
</linearGradient>
<linearGradient id="paint1_linear" x1="26.8047" y1="12.7001" x2="26.8047" y2="15.5001" gradientUnits="userSpaceOnUse">
<stop stop-color="#545DAA"/>
<stop offset="1" stop-color="#474F94"/>
</linearGradient>
<linearGradient id="paint2_linear" x1="26.7999" y1="18.6001" x2="26.7999" y2="21.4001" gradientUnits="userSpaceOnUse">
<stop stop-color="#545DAA"/>
<stop offset="1" stop-color="#474F94"/>
</linearGradient>
<linearGradient id="paint3_linear" x1="23.5499" y1="24.5001" x2="23.5499" y2="27.3001" gradientUnits="userSpaceOnUse">
<stop stop-color="#545DAA"/>
<stop offset="1" stop-color="#474F94"/>
</linearGradient>
<clipPath id="clip0">
<rect width="48" height="47.2" fill="white" transform="translate(0 0.00012207)"/>
</clipPath>
</defs>
</svg>
