<svg width="50" height="54" viewBox="0 0 50 54" fill="none" xmlns="http://www.w3.org/2000/svg">
<g clipPath="url(#clip0)">
<path d="M48.375 24.75C48.15 24.75 47.8125 24.6375 47.7 24.525L40.5 18.3375L33.4125 24.4125C33.075 24.75 32.625 24.75 32.175 24.525C31.725 24.4125 31.5 24.075 31.5 23.625V3.375C31.5 1.4625 32.9625 0 34.875 0H46.125C48.0375 0 49.5 1.4625 49.5 3.375V23.625C49.5 24.075 49.275 24.4125 48.825 24.6375C48.7125 24.75 48.4875 24.75 48.375 24.75ZM40.5 15.75C40.725 15.75 41.0625 15.8625 41.175 15.975L47.1375 21.15V3.375C47.1375 2.8125 46.6875 2.25 46.0125 2.25H34.875C34.2 2.25 33.75 2.7 33.75 3.375V21.15L39.7125 15.975C39.9375 15.8625 40.275 15.75 40.5 15.75Z" fill="url(#paint0_linear)"/>
<path d="M1.125 40.5C0.45 40.5 0 40.05 0 39.375V5.625C0 2.475 2.475 0 5.625 0H25.875C26.55 0 27 0.45 27 1.125C27 1.8 26.55 2.25 25.875 2.25H5.625C3.7125 2.25 2.25 3.7125 2.25 5.625V39.375C2.25 40.05 1.8 40.5 1.125 40.5Z" fill="url(#paint1_linear)"/>
<path d="M14.625 45H5.625C2.475 45 0 42.525 0 39.375C0 36.225 2.475 33.75 5.625 33.75H38.25V28.125C38.25 27.45 38.7 27 39.375 27C40.05 27 40.5 27.45 40.5 28.125V34.875C40.5 35.55 40.05 36 39.375 36H5.625C3.7125 36 2.25 37.4625 2.25 39.375C2.25 41.2875 3.7125 42.75 5.625 42.75H14.625C15.3 42.75 15.75 43.2 15.75 43.875C15.75 44.55 15.3 45 14.625 45Z" fill="url(#paint2_linear)"/>
<path d="M39.375 45H25.875C25.2 45 24.75 44.55 24.75 43.875C24.75 43.2 25.2 42.75 25.875 42.75H38.25V34.875C38.25 34.2 38.7 33.75 39.375 33.75C40.05 33.75 40.5 34.2 40.5 34.875V43.875C40.5 44.55 40.05 45 39.375 45Z" fill="url(#paint3_linear)"/>
<path d="M25.875 54C25.65 54 25.425 53.8875 25.2 53.775L20.25 49.8375L15.3 53.775C14.9625 54 14.5125 54.1125 14.0625 53.8875C13.725 53.6625 13.5 53.325 13.5 52.875V39.375C13.5 38.7 13.95 38.25 14.625 38.25C15.3 38.25 15.75 38.7 15.75 39.375V50.5125L19.575 47.475C20.025 47.1375 20.5875 47.1375 20.925 47.475L24.75 50.5125V39.375C24.75 38.7 25.2 38.25 25.875 38.25C26.55 38.25 27 38.7 27 39.375V52.875C27 53.325 26.775 53.6625 26.325 53.8875C26.2125 54 25.9875 54 25.875 54Z" fill="url(#paint4_linear)"/>
<path d="M30.375 40.5H10.125C9.45 40.5 9 40.05 9 39.375C9 38.7 9.45 38.25 10.125 38.25H30.375C31.05 38.25 31.5 38.7 31.5 39.375C31.5 40.05 31.05 40.5 30.375 40.5Z" fill="url(#paint5_linear)"/>
</g>
<defs>
<linearGradient id="paint0_linear" x1="40.5" y1="0" x2="40.5" y2="24.75" gradientUnits="userSpaceOnUse">
<stop stop-color="#545DAA"/>
<stop offset="1" stop-color="#474F94"/>
</linearGradient>
<linearGradient id="paint1_linear" x1="13.5" y1="0" x2="13.5" y2="40.5" gradientUnits="userSpaceOnUse">
<stop stop-color="#545DAA"/>
<stop offset="1" stop-color="#474F94"/>
</linearGradient>
<linearGradient id="paint2_linear" x1="20.25" y1="27" x2="20.25" y2="45" gradientUnits="userSpaceOnUse">
<stop stop-color="#545DAA"/>
<stop offset="1" stop-color="#474F94"/>
</linearGradient>
<linearGradient id="paint3_linear" x1="32.625" y1="33.75" x2="32.625" y2="45" gradientUnits="userSpaceOnUse">
<stop stop-color="#545DAA"/>
<stop offset="1" stop-color="#474F94"/>
</linearGradient>
<linearGradient id="paint4_linear" x1="20.25" y1="38.25" x2="20.25" y2="54.0101" gradientUnits="userSpaceOnUse">
<stop stop-color="#545DAA"/>
<stop offset="1" stop-color="#474F94"/>
</linearGradient>
<linearGradient id="paint5_linear" x1="20.25" y1="38.25" x2="20.25" y2="40.5" gradientUnits="userSpaceOnUse">
<stop stop-color="#545DAA"/>
<stop offset="1" stop-color="#474F94"/>
</linearGradient>
<clipPath id="clip0">
<rect width="49.5" height="54" fill="white"/>
</clipPath>
</defs>
</svg>
