<svg width="47" height="48" viewBox="0 0 47 48" fill="none" xmlns="http://www.w3.org/2000/svg">
<g clip-path="url(#clip0)">
<path d="M32.6001 7.7H30.3001C29.3001 6 28.5001 4.2 28.1001 2.3C27.8001 0.9 26.6001 0 25.3001 0H20.8001C19.4001 0 18.3001 0.9 18.0001 2.3C17.5001 4.2 16.8001 6 15.8001 7.7H13.5001C11.9001 7.7 10.6001 9 10.6001 10.6V37.5C10.6001 39.1 11.9001 40.4 13.5001 40.4H15.8001C16.8001 42.1 17.6001 43.9 18.0001 45.8C18.3001 47.1 19.5001 48.1 20.8001 48.1H25.3001C26.7001 48.1 27.8001 47.2 28.1001 45.8C28.6001 43.9 29.3001 42.1 30.3001 40.4H32.6001C34.2001 40.4 35.5001 39.1 35.5001 37.5V10.6C35.5001 9 34.2001 7.7 32.6001 7.7ZM19.9001 2.7C20.0001 2.3 20.4001 1.9 20.8001 1.9H25.3001C25.8001 1.9 26.1001 2.2 26.2001 2.7C26.6001 4.4 27.2001 6.1 28.1001 7.7H18.0001C18.8001 6.1 19.5001 4.4 19.9001 2.7ZM26.2001 45.3C26.1001 45.7 25.7001 46.1 25.3001 46.1H20.8001C20.3001 46.1 20.0001 45.8 19.9001 45.3C19.5001 43.6 18.9001 41.9 18.0001 40.3H28.1001C27.2001 41.9 26.6001 43.6 26.2001 45.3ZM33.6001 37.4C33.6001 37.9 33.2001 38.4 32.6001 38.4H13.4001C12.9001 38.4 12.4001 38 12.4001 37.4V10.6C12.4001 10.1 12.8001 9.6 13.4001 9.6H32.6001C33.1001 9.6 33.6001 10 33.6001 10.6V37.4Z" fill="#545DAA"/>
<path d="M39.1001 19.3C38.7001 18.9 38.1001 18.9 37.7001 19.3C37.3001 19.7 37.3001 20.3 37.7001 20.7C39.2001 22.1 39.4001 24.4 38.0001 26C37.9001 26.1 37.8001 26.2 37.7001 26.3C37.3001 26.7 37.3001 27.3 37.6001 27.7C38.0001 28.1 38.6001 28.1 39.0001 27.8C41.3001 25.7 41.5001 22.1 39.4001 19.8C39.3001 19.6 39.2001 19.5 39.1001 19.3Z" fill="#545DAA"/>
<path d="M42.9998 16.6C42.5998 16.2 41.9998 16.3 41.5998 16.6C41.1998 17 41.2998 17.6 41.5998 18C44.6998 20.7 44.8998 25.4 42.1998 28.5C41.9998 28.7 41.7998 28.9 41.5998 29.1C41.1998 29.5 41.1998 30.1 41.5998 30.5C41.9998 30.9 42.5998 30.9 42.9998 30.5C46.7998 27 47.0998 21.1 43.6998 17.3C43.4998 17 43.1998 16.8 42.9998 16.6Z" fill="#545DAA"/>
<path d="M8.40024 19.4001C8.00024 19.0001 7.40024 19.0001 7.00024 19.4001C4.70024 21.5001 4.50024 25.1001 6.60024 27.4001C6.70024 27.5001 6.80024 27.7001 7.00024 27.8001C7.40024 28.2001 8.00024 28.2001 8.40024 27.8001C8.80024 27.4001 8.80024 26.8001 8.40024 26.4001C6.90024 25.0001 6.70024 22.7001 8.10024 21.1001C8.20024 21.0001 8.30024 20.9001 8.40024 20.8001C8.70024 20.4001 8.70024 19.8001 8.40024 19.4001Z" fill="#545DAA"/>
<path d="M1.90002 23.5C1.90002 21.4 2.80002 19.4 4.40002 18C4.80002 17.6 4.80002 17 4.40002 16.6C4.00002 16.2 3.40002 16.2 3.00002 16.6C-0.799976 20.1 -1.09998 26 2.30002 29.8C2.50002 30 2.70002 30.3 3.00002 30.5C3.40002 30.9 4.00002 30.8 4.40002 30.5C4.80002 30.1 4.70002 29.5 4.40002 29.1C2.80002 27.6 1.90002 25.6 1.90002 23.5Z" fill="#545DAA"/>
<path d="M24.9999 18.2C24.2999 18.2 23.6999 18.4 23.0999 18.7C22.4999 18.4 21.8999 18.2 21.1999 18.2C19.0999 18.2 17.3999 19.9 17.3999 22C17.3999 27.3 22.4999 30.4 22.6999 30.5C22.9999 30.7 23.3999 30.7 23.6999 30.5C23.8999 30.4 28.9999 27.3 28.9999 22C28.7999 20 27.0999 18.2 24.9999 18.2ZM22.9999 28.6C21.8999 27.8 19.1999 25.4 19.1999 22.1C19.1999 21 20.0999 20.2 21.0999 20.2C21.5999 20.2 21.9999 20.4 22.3999 20.7C22.7999 21 23.2999 21 23.6999 20.7C23.9999 20.4 24.4999 20.2 24.9999 20.2C26.0999 20.2 26.8999 21.1 26.8999 22.1C26.8999 25.4 24.1999 27.8 22.9999 28.6Z" fill="#545DAA"/>
</g>
<defs>
<clipPath id="clip0">
<rect width="46.1" height="48" fill="white"/>
</clipPath>
</defs>
</svg>
